<?xml version="1.0" encoding="utf-8"?>
<!-- Generator: Adobe Illustrator 19.0.0, SVG Export Plug-In . SVG Version: 6.00 Build 0)  -->
<svg version="1.1" id="Capa_1" xmlns="http://www.w3.org/2000/svg" xmlns:xlink="http://www.w3.org/1999/xlink" x="0px" y="0px"
	 viewBox="-436 214.1 90 112.5" style="enable-background:new -436 214.1 90 112.5;" xml:space="preserve">
<path d="M-391,226.9c-17.7,0-32.2,14.4-32.2,32.2s14.4,32.2,32.2,32.2s32.2-14.4,32.2-32.2C-358.8,241.3-373.3,226.9-391,226.9z
	 M-391,289.2c-16.6,0-30.2-13.5-30.2-30.2c0-16.6,13.5-30.2,30.2-30.2c16.6,0,30.2,13.5,30.2,30.2
	C-360.8,275.7-374.4,289.2-391,289.2z"/>
<polygon points="-391,268.8 -407.2,249.1 -409.7,249.1 -391,271.8 -372.3,249.1 -374.8,249.1 "/>
</svg>
